<svg width="30" height="37" viewBox="0 0 30 37" fill="none" xmlns="http://www.w3.org/2000/svg">
<g clip-path="url(#clip0_26_122)">
<path d="M7.43802 36.0067C6.69421 35.7584 5.95041 35.2617 5.45455 34.2685C4.95868 33.7718 4.46281 33.0268 3.71901 32.0336C2.72727 30.5436 1.73554 28.557 0.991736 26.5705C0.247934 24.3356 0 22.1007 0 19.8658C0 17.3826 0.495867 15.396 1.4876 13.6577C2.2314 12.1678 3.47107 11.1745 4.71074 10.1812C5.95041 9.43624 7.43802 8.9396 8.92562 8.9396C9.42149 8.9396 9.91736 8.9396 10.6612 9.18792C11.157 9.18792 11.6529 9.43624 12.3967 9.68456C13.1405 9.93289 13.6364 10.1812 13.8843 10.1812C14.3802 10.4295 14.876 10.4295 15.124 10.4295C15.3719 10.4295 15.6198 10.4295 16.1157 10.1812C16.3636 10.1812 16.8595 9.93289 17.3554 9.68456C17.8512 9.43624 18.3471 9.18792 18.843 9.18792C19.3388 9.18792 19.8347 8.9396 20.3306 8.9396C20.8264 8.9396 21.5702 8.69128 22.0661 8.9396C23.0578 8.9396 24.0496 9.18792 25.0413 9.68456C26.5289 10.1812 27.7686 11.4228 28.7603 12.6644C28.5124 12.6644 28.0165 12.9128 27.7686 13.4094C27.0248 14.1544 26.281 14.8993 25.7851 15.6443C25.2893 16.8859 24.7934 18.1275 24.7934 19.6175C24.7934 21.3557 25.2893 22.8456 26.0331 24.0872C26.5289 25.0805 27.5207 25.8255 28.2645 26.3221C29.0083 26.5705 29.5041 26.8188 29.7521 27.0671C29.7521 27.5638 29.5041 28.3087 29.2562 28.557C28.7603 30.047 28.0165 31.0403 27.2727 32.2819C26.5289 33.2752 26.0331 34.0201 25.7851 34.2685C25.0413 35.0134 24.5455 35.7584 23.8017 36.0067C23.3058 36.5034 22.562 36.7517 21.5702 36.7517C21.0744 36.7517 20.5785 36.7517 20.0826 36.5034C19.8347 36.5034 19.3388 36.255 18.843 36.0067C18.0992 35.7584 17.8512 35.5101 17.3554 35.5101C16.8595 35.2617 16.1157 35.2617 15.6198 35.2617C15.124 35.2617 14.3802 35.2617 13.8843 35.5101C13.3884 35.5101 12.8926 35.7584 12.3967 36.0067C11.6529 36.255 11.405 36.5034 11.157 36.5034C10.6612 36.7517 10.1653 36.7517 9.66942 36.7517C8.92562 36.7517 8.18182 36.5034 7.43802 36.0067ZM17.8512 7.69799C16.8595 8.19463 15.8678 8.44295 14.876 8.44295C14.6281 7.44966 14.876 6.45638 15.3719 5.21476C15.8678 4.22148 16.1157 3.47651 16.8595 2.73154C17.6033 1.98658 18.3471 1.24161 19.3388 0.744967C20.3306 0.248323 21.3223 0 22.314 0C22.314 0.993289 22.0661 1.98658 21.8182 3.22819C21.5702 4.22148 20.8264 4.96644 20.3306 5.71141C19.5868 6.7047 18.843 7.20134 17.8512 7.69799Z" fill="white"/>
</g>
<defs>
<clipPath id="clip0_26_122">
<rect width="30" height="37" fill="white"/>
</clipPath>
</defs>
</svg>
