<svg width="37" height="37" viewBox="0 0 37 37" fill="none" xmlns="http://www.w3.org/2000/svg">
<path d="M34.0054 19.2509C34.0054 18.0752 33.8999 16.9447 33.704 15.8594H18.0879V22.2731H27.0114C26.627 24.3457 25.4588 26.1018 23.7027 27.2775V31.4378H29.0614C32.1966 28.5512 34.0054 24.3005 34.0054 19.2509V19.2509Z" fill="#4285F4"/>
<path d="M18.0877 35.4549C22.5645 35.4549 26.3178 33.9701 29.0612 31.4378L23.7026 27.2775C22.2178 28.2724 20.3186 28.8602 18.0877 28.8602C13.7692 28.8602 10.1139 25.9435 8.81 22.0244H3.27051V26.3203C5.9988 31.7393 11.6061 35.4549 18.0877 35.4549Z" fill="#34A853"/>
<path d="M8.8109 22.0249C8.47928 21.03 8.29086 19.9673 8.29086 18.8745C8.29086 17.7817 8.47928 16.719 8.8109 15.7242V11.4282H3.27141C2.11075 13.7388 1.50679 16.2888 1.50781 18.8745C1.50781 21.55 2.14844 24.0824 3.27141 26.3208L8.8109 22.0249V22.0249Z" fill="#FBBC05"/>
<path d="M18.0877 8.88809C20.5221 8.88809 22.7077 9.72467 24.4261 11.3677L29.1818 6.612C26.3103 3.93646 22.557 2.29346 18.0877 2.29346C11.6061 2.29346 5.9988 6.00906 3.27051 11.428L8.81 15.7239C10.1139 11.8048 13.7692 8.88809 18.0877 8.88809Z" fill="#EA4335"/>
</svg>
