<svg width="36" height="33" viewBox="0 0 36 33" fill="none" xmlns="http://www.w3.org/2000/svg">
<path d="M33.3183 1L20.0361 10.8278L22.5061 5.03597L33.3183 1Z" fill="#E17726" stroke="#E17726" stroke-width="0.25" stroke-linecap="round" stroke-linejoin="round"/>
<path d="M2.68164 1L15.8455 10.9196L13.4939 5.03596L2.68164 1Z" fill="#E27625" stroke="#E27625" stroke-width="0.25" stroke-linecap="round" stroke-linejoin="round"/>
<path d="M28.5359 23.7876L25.002 29.1864L32.5692 31.2699L34.7369 23.9056L28.5359 23.7876Z" fill="#E27625" stroke="#E27625" stroke-width="0.25" stroke-linecap="round" stroke-linejoin="round"/>
<path d="M1.27539 23.9056L3.42994 31.2699L10.9841 29.1864L7.46318 23.7876L1.27539 23.9056Z" fill="#E27625" stroke="#E27625" stroke-width="0.25" stroke-linecap="round" stroke-linejoin="round"/>
<path d="M10.5776 14.6671L8.47559 17.8382L15.964 18.1789L15.7144 10.1201L10.5776 14.6671Z" fill="#E27625" stroke="#E27625" stroke-width="0.25" stroke-linecap="round" stroke-linejoin="round"/>
<path d="M25.4225 14.6675L20.2069 10.0288L20.0361 18.1794L27.5245 17.8387L25.4225 14.6675Z" fill="#E27625" stroke="#E27625" stroke-width="0.25" stroke-linecap="round" stroke-linejoin="round"/>
<path d="M10.9844 29.1864L15.5168 26.9981L11.615 23.958L10.9844 29.1864Z" fill="#E27625" stroke="#E27625" stroke-width="0.25" stroke-linecap="round" stroke-linejoin="round"/>
<path d="M20.4834 26.9981L25.0027 29.1864L24.3852 23.958L20.4834 26.9981Z" fill="#E27625" stroke="#E27625" stroke-width="0.25" stroke-linecap="round" stroke-linejoin="round"/>
<path d="M25.0027 29.1863L20.4834 26.998L20.8512 29.9333L20.8118 31.1781L25.0027 29.1863Z" fill="#D5BFB2" stroke="#D5BFB2" stroke-width="0.25" stroke-linecap="round" stroke-linejoin="round"/>
<path d="M10.9844 29.1863L15.1884 31.1781L15.1621 29.9333L15.5168 26.998L10.9844 29.1863Z" fill="#D5BFB2" stroke="#D5BFB2" stroke-width="0.25" stroke-linecap="round" stroke-linejoin="round"/>
<path d="M15.2671 22.0186L11.5098 20.9179L14.1635 19.6992L15.2671 22.0186Z" fill="#233447" stroke="#233447" stroke-width="0.25" stroke-linecap="round" stroke-linejoin="round"/>
<path d="M20.7324 22.0186L21.836 19.6992L24.5029 20.9179L20.7324 22.0186Z" fill="#233447" stroke="#233447" stroke-width="0.25" stroke-linecap="round" stroke-linejoin="round"/>
<path d="M10.9847 29.1864L11.6416 23.7876L7.46387 23.9056L10.9847 29.1864Z" fill="#CC6228" stroke="#CC6228" stroke-width="0.25" stroke-linecap="round" stroke-linejoin="round"/>
<path d="M24.3584 23.7876L25.0022 29.1864L28.5362 23.9056L24.3584 23.7876Z" fill="#CC6228" stroke="#CC6228" stroke-width="0.25" stroke-linecap="round" stroke-linejoin="round"/>
<path d="M27.5245 17.8384L20.0361 18.1791L20.7324 22.0186L21.836 19.6991L24.5029 20.9178L27.5245 17.8384Z" fill="#CC6228" stroke="#CC6228" stroke-width="0.25" stroke-linecap="round" stroke-linejoin="round"/>
<path d="M11.5104 20.9178L14.1641 19.6991L15.2677 22.0186L15.964 18.1791L8.47559 17.8384L11.5104 20.9178Z" fill="#CC6228" stroke="#CC6228" stroke-width="0.25" stroke-linecap="round" stroke-linejoin="round"/>
<path d="M8.47559 17.8384L11.6155 23.9579L11.5103 20.9178L8.47559 17.8384Z" fill="#E27525" stroke="#E27525" stroke-width="0.25" stroke-linecap="round" stroke-linejoin="round"/>
<path d="M24.503 20.9178L24.3848 23.9579L27.5247 17.8384L24.503 20.9178Z" fill="#E27525" stroke="#E27525" stroke-width="0.25" stroke-linecap="round" stroke-linejoin="round"/>
<path d="M15.9639 18.1792L15.2676 22.0187L16.1478 26.5525L16.3449 20.5772L15.9639 18.1792Z" fill="#E27525" stroke="#E27525" stroke-width="0.25" stroke-linecap="round" stroke-linejoin="round"/>
<path d="M20.0368 18.1792L19.6689 20.5642L19.8529 26.5525L20.7331 22.0187L20.0368 18.1792Z" fill="#E27525" stroke="#E27525" stroke-width="0.25" stroke-linecap="round" stroke-linejoin="round"/>
<path d="M20.7327 22.0187L19.8525 26.5526L20.4832 26.9981L24.3851 23.958L24.5033 20.918L20.7327 22.0187Z" fill="#F5841F" stroke="#F5841F" stroke-width="0.25" stroke-linecap="round" stroke-linejoin="round"/>
<path d="M11.5098 20.918L11.6149 23.958L15.5167 26.9981L16.1473 26.5526L15.2671 22.0187L11.5098 20.918Z" fill="#F5841F" stroke="#F5841F" stroke-width="0.25" stroke-linecap="round" stroke-linejoin="round"/>
<path d="M20.8113 31.1783L20.8506 29.9334L20.5091 29.6451H15.4906L15.1621 29.9334L15.1884 31.1783L10.9844 29.1865L12.4558 30.3921L15.438 32.4494H20.5485L23.5438 30.3921L25.0021 29.1865L20.8113 31.1783Z" fill="#C0AC9D" stroke="#C0AC9D" stroke-width="0.25" stroke-linecap="round" stroke-linejoin="round"/>
<path d="M20.4828 26.9977L19.8522 26.5522H16.1474L15.5169 26.9977L15.1621 29.933L15.4906 29.6447H20.5091L20.8507 29.933L20.4828 26.9977Z" fill="#161616" stroke="#161616" stroke-width="0.25" stroke-linecap="round" stroke-linejoin="round"/>
<path d="M33.8836 11.4699L35.0004 6.04495L33.3187 1L20.4834 10.5003L25.423 14.6672L32.3991 16.6984L33.9362 14.9031L33.2663 14.4182L34.3303 13.4486L33.5158 12.8196L34.58 12.0072L33.8836 11.4699Z" fill="#763E1A" stroke="#763E1A" stroke-width="0.25" stroke-linecap="round" stroke-linejoin="round"/>
<path d="M1 6.04495L2.12983 11.4699L1.40727 12.0072L2.48454 12.8196L1.67002 13.4486L2.73416 14.4182L2.06414 14.9031L3.60124 16.6984L10.5773 14.6672L15.517 10.5003L2.68161 1L1 6.04495Z" fill="#763E1A" stroke="#763E1A" stroke-width="0.25" stroke-linecap="round" stroke-linejoin="round"/>
<path d="M32.3987 16.698L25.4226 14.667L27.5247 17.8381L24.3848 23.9575L28.5362 23.9052H34.7371L32.3987 16.698Z" fill="#F5841F" stroke="#F5841F" stroke-width="0.25" stroke-linecap="round" stroke-linejoin="round"/>
<path d="M10.5767 14.667L3.60074 16.698L1.27539 23.9052H7.46318L11.6146 23.9575L8.47478 17.8381L10.5767 14.667Z" fill="#F5841F" stroke="#F5841F" stroke-width="0.25" stroke-linecap="round" stroke-linejoin="round"/>
<path d="M20.0367 18.1792L20.4833 10.5004L22.5065 5.03613H13.4941L15.5173 10.5004L15.964 18.1792L16.1348 20.5903L16.1479 26.5526H19.8527L19.8659 20.5903L20.0367 18.1792Z" fill="#F5841F" stroke="#F5841F" stroke-width="0.25" stroke-linecap="round" stroke-linejoin="round"/>
</svg>
