<svg width="35" height="35" viewBox="0 0 35 35" fill="none" xmlns="http://www.w3.org/2000/svg">
<path d="M32.6702 24.9633V29.5805C32.672 30.0092 32.584 30.4334 32.4119 30.8262C32.2399 31.2189 31.9875 31.5715 31.6711 31.8612C31.3546 32.151 30.9809 32.3716 30.5741 32.5089C30.1672 32.6463 29.7361 32.6973 29.3084 32.6587C24.563 32.1441 20.0046 30.5257 15.9997 27.9337C12.2736 25.5707 9.11458 22.4179 6.74688 18.6992C4.14064 14.6841 2.51871 10.1126 2.01252 5.35535C1.97398 4.92974 2.02466 4.50079 2.16133 4.0958C2.29801 3.69081 2.51768 3.31867 2.80636 3.00305C3.09504 2.68743 3.44641 2.43526 3.83809 2.2626C4.22977 2.08993 4.65318 2.00055 5.08137 2.00015H9.70779C10.4562 1.9928 11.1818 2.2573 11.7492 2.74435C12.3167 3.2314 12.6873 3.90776 12.7921 4.64737C12.9873 6.125 13.3495 7.57583 13.8716 8.9722C14.079 9.52307 14.124 10.1218 14.001 10.6973C13.878 11.2729 13.5922 11.8012 13.1776 12.2197L11.2191 14.1743C13.4144 18.0275 16.6111 21.2178 20.4719 23.4088L22.4304 21.4542C22.8497 21.0404 23.3791 20.7552 23.9558 20.6324C24.5325 20.5097 25.1324 20.5545 25.6843 20.7616C27.0835 21.2826 28.5372 21.6441 30.0178 21.8389C30.7669 21.9444 31.451 22.321 31.9401 22.897C32.4291 23.4731 32.689 24.2085 32.6702 24.9633Z" stroke="black" stroke-width="4" stroke-linecap="round" stroke-linejoin="round"/>
</svg>
